<?xml version="1.0" standalone="no"?>
<!DOCTYPE svg PUBLIC "-//W3C//DTD SVG 20010904//EN"
 "http://www.w3.org/TR/2001/REC-SVG-20010904/DTD/svg10.dtd">
<svg version="1.0" xmlns="http://www.w3.org/2000/svg"
 width="512.000000pt" height="512.000000pt" viewBox="0 0 512.000000 512.000000"
 preserveAspectRatio="xMidYMid meet">
<metadata>
Created by potrace 1.14, written by Peter Selinger 2001-2017
</metadata>
<g transform="translate(0.000000,512.000000) scale(0.100000,-0.100000)"
fill="#000000" stroke="none">
<path d="M1658 5115 c-2 -2 -34 -6 -73 -9 -176 -13 -226 -18 -305 -31 -47 -8
-105 -17 -130 -20 -163 -22 -428 -106 -550 -173 -93 -51 -184 -145 -202 -208
-12 -41 -14 -319 -13 -1789 2 -1978 -8 -1774 93 -1875 114 -113 371 -212 692
-265 145 -24 153 -25 210 -31 30 -3 73 -7 95 -10 97 -10 305 -18 475 -18 245
1 396 11 603 40 21 3 37 1 37 -5 0 -6 14 -41 32 -78 156 -330 463 -565 819
-626 79 -14 291 -15 369 -2 159 26 344 106 477 205 205 153 354 380 419 635 4
17 8 32 9 35 4 15 19 172 19 215 2 112 -26 283 -59 360 -7 17 -16 41 -20 55
-27 90 -140 264 -233 359 -150 152 -352 269 -531 306 -9 2 -38 9 -66 15 -59
14 -261 20 -325 11 l-45 -7 1 1210 c1 1132 0 1214 -17 1264 -28 83 -91 145
-219 215 -96 52 -355 135 -475 152 -11 2 -76 12 -145 23 -69 11 -165 24 -215
27 -49 4 -99 10 -110 12 -22 5 -612 12 -617 8z"/>
</g>
</svg>
